<mxfile host="app.diagrams.net" modified="2023-10-01T17:03:08.487Z" agent="Mozilla/5.0 (Windows NT 10.0; Win64; x64; rv:109.0) Gecko/20100101 Firefox/118.0" etag="H7HvhfHxd9BXEgD3KW41" version="22.0.0" type="device">
  <diagram id="C5RBs43oDa-KdzZeNtuy" name="Page-1">
    <mxGraphModel dx="1444" dy="753" grid="1" gridSize="10" guides="1" tooltips="1" connect="1" arrows="1" fold="1" page="1" pageScale="1" pageWidth="827" pageHeight="1169" math="0" shadow="0">
      <root>
        <mxCell id="WIyWlLk6GJQsqaUBKTNV-0" />
        <mxCell id="WIyWlLk6GJQsqaUBKTNV-1" parent="WIyWlLk6GJQsqaUBKTNV-0" />
        <mxCell id="x9uNJtBtHDF5PVbIG_vH-0" value="Persona" style="swimlane;fontStyle=1;align=center;verticalAlign=top;childLayout=stackLayout;horizontal=1;startSize=26;horizontalStack=0;resizeParent=1;resizeParentMax=0;resizeLast=0;collapsible=1;marginBottom=0;whiteSpace=wrap;html=1;" vertex="1" parent="WIyWlLk6GJQsqaUBKTNV-1">
          <mxGeometry x="60" y="30" width="400" height="194" as="geometry" />
        </mxCell>
        <mxCell id="x9uNJtBtHDF5PVbIG_vH-1" value="&lt;div&gt;- cedula: string&lt;/div&gt;&lt;div&gt;-nombres: string&lt;/div&gt;&lt;div&gt;-appellidos: string&lt;/div&gt;&lt;div&gt;-fechaNacimiento: string&lt;/div&gt;&lt;div&gt;-genero: string&lt;/div&gt;&lt;div&gt;-direccion: string&lt;/div&gt;&lt;div&gt;-numeroTelefono: string&lt;/div&gt;&lt;div&gt;-correoElectronico: string&lt;br&gt;&lt;/div&gt;" style="text;strokeColor=none;fillColor=none;align=left;verticalAlign=top;spacingLeft=4;spacingRight=4;overflow=hidden;rotatable=0;points=[[0,0.5],[1,0.5]];portConstraint=eastwest;whiteSpace=wrap;html=1;" vertex="1" parent="x9uNJtBtHDF5PVbIG_vH-0">
          <mxGeometry y="26" width="400" height="134" as="geometry" />
        </mxCell>
        <mxCell id="x9uNJtBtHDF5PVbIG_vH-2" value="" style="line;strokeWidth=1;fillColor=none;align=left;verticalAlign=middle;spacingTop=-1;spacingLeft=3;spacingRight=3;rotatable=0;labelPosition=right;points=[];portConstraint=eastwest;strokeColor=inherit;" vertex="1" parent="x9uNJtBtHDF5PVbIG_vH-0">
          <mxGeometry y="160" width="400" height="8" as="geometry" />
        </mxCell>
        <mxCell id="x9uNJtBtHDF5PVbIG_vH-3" value="+ Persona(string, string, string, string, string, string, string, string)" style="text;strokeColor=none;fillColor=none;align=left;verticalAlign=top;spacingLeft=4;spacingRight=4;overflow=hidden;rotatable=0;points=[[0,0.5],[1,0.5]];portConstraint=eastwest;whiteSpace=wrap;html=1;" vertex="1" parent="x9uNJtBtHDF5PVbIG_vH-0">
          <mxGeometry y="168" width="400" height="26" as="geometry" />
        </mxCell>
        <mxCell id="x9uNJtBtHDF5PVbIG_vH-4" value="Pasajero" style="swimlane;fontStyle=1;align=center;verticalAlign=top;childLayout=stackLayout;horizontal=1;startSize=26;horizontalStack=0;resizeParent=1;resizeParentMax=0;resizeLast=0;collapsible=1;marginBottom=0;whiteSpace=wrap;html=1;" vertex="1" parent="WIyWlLk6GJQsqaUBKTNV-1">
          <mxGeometry x="70" y="330" width="180" height="114" as="geometry" />
        </mxCell>
        <mxCell id="x9uNJtBtHDF5PVbIG_vH-5" value="&lt;div&gt;- nacionalidad: string&lt;br&gt;&lt;/div&gt;&lt;div&gt;+ cantidadMaletas: int&lt;/div&gt;&lt;div&gt;- informacionMedica: string&lt;br&gt;&lt;/div&gt;&lt;div&gt;&lt;br&gt;&lt;/div&gt;" style="text;strokeColor=none;fillColor=none;align=left;verticalAlign=top;spacingLeft=4;spacingRight=4;overflow=hidden;rotatable=0;points=[[0,0.5],[1,0.5]];portConstraint=eastwest;whiteSpace=wrap;html=1;" vertex="1" parent="x9uNJtBtHDF5PVbIG_vH-4">
          <mxGeometry y="26" width="180" height="54" as="geometry" />
        </mxCell>
        <mxCell id="x9uNJtBtHDF5PVbIG_vH-6" value="" style="line;strokeWidth=1;fillColor=none;align=left;verticalAlign=middle;spacingTop=-1;spacingLeft=3;spacingRight=3;rotatable=0;labelPosition=right;points=[];portConstraint=eastwest;strokeColor=inherit;" vertex="1" parent="x9uNJtBtHDF5PVbIG_vH-4">
          <mxGeometry y="80" width="180" height="8" as="geometry" />
        </mxCell>
        <mxCell id="x9uNJtBtHDF5PVbIG_vH-7" value="+ Pasajero( string, int, string)" style="text;strokeColor=none;fillColor=none;align=left;verticalAlign=top;spacingLeft=4;spacingRight=4;overflow=hidden;rotatable=0;points=[[0,0.5],[1,0.5]];portConstraint=eastwest;whiteSpace=wrap;html=1;" vertex="1" parent="x9uNJtBtHDF5PVbIG_vH-4">
          <mxGeometry y="88" width="180" height="26" as="geometry" />
        </mxCell>
        <mxCell id="x9uNJtBtHDF5PVbIG_vH-8" value="Tripulacion" style="swimlane;fontStyle=1;align=center;verticalAlign=top;childLayout=stackLayout;horizontal=1;startSize=26;horizontalStack=0;resizeParent=1;resizeParentMax=0;resizeLast=0;collapsible=1;marginBottom=0;whiteSpace=wrap;html=1;" vertex="1" parent="WIyWlLk6GJQsqaUBKTNV-1">
          <mxGeometry x="310" y="342" width="160" height="124" as="geometry" />
        </mxCell>
        <mxCell id="x9uNJtBtHDF5PVbIG_vH-9" value="&lt;div&gt;-puesto: string&lt;/div&gt;&lt;div&gt;-anoExperiencia: int&lt;/div&gt;&lt;div&gt;-horasTrabajoDiarias: int&lt;br&gt;&lt;/div&gt;&lt;div&gt;&lt;br&gt;&lt;/div&gt;" style="text;strokeColor=none;fillColor=none;align=left;verticalAlign=top;spacingLeft=4;spacingRight=4;overflow=hidden;rotatable=0;points=[[0,0.5],[1,0.5]];portConstraint=eastwest;whiteSpace=wrap;html=1;" vertex="1" parent="x9uNJtBtHDF5PVbIG_vH-8">
          <mxGeometry y="26" width="160" height="64" as="geometry" />
        </mxCell>
        <mxCell id="x9uNJtBtHDF5PVbIG_vH-10" value="" style="line;strokeWidth=1;fillColor=none;align=left;verticalAlign=middle;spacingTop=-1;spacingLeft=3;spacingRight=3;rotatable=0;labelPosition=right;points=[];portConstraint=eastwest;strokeColor=inherit;" vertex="1" parent="x9uNJtBtHDF5PVbIG_vH-8">
          <mxGeometry y="90" width="160" height="8" as="geometry" />
        </mxCell>
        <mxCell id="x9uNJtBtHDF5PVbIG_vH-11" value="+ Tripulacion( string, int,int)" style="text;strokeColor=none;fillColor=none;align=left;verticalAlign=top;spacingLeft=4;spacingRight=4;overflow=hidden;rotatable=0;points=[[0,0.5],[1,0.5]];portConstraint=eastwest;whiteSpace=wrap;html=1;" vertex="1" parent="x9uNJtBtHDF5PVbIG_vH-8">
          <mxGeometry y="98" width="160" height="26" as="geometry" />
        </mxCell>
        <mxCell id="x9uNJtBtHDF5PVbIG_vH-14" value="" style="endArrow=block;endSize=16;endFill=0;html=1;rounded=0;entryX=0.372;entryY=1.255;entryDx=0;entryDy=0;entryPerimeter=0;exitX=0.75;exitY=0;exitDx=0;exitDy=0;" edge="1" parent="WIyWlLk6GJQsqaUBKTNV-1" source="x9uNJtBtHDF5PVbIG_vH-4" target="x9uNJtBtHDF5PVbIG_vH-3">
          <mxGeometry width="160" relative="1" as="geometry">
            <mxPoint x="280" y="320" as="sourcePoint" />
            <mxPoint x="440" y="320" as="targetPoint" />
          </mxGeometry>
        </mxCell>
        <mxCell id="x9uNJtBtHDF5PVbIG_vH-15" value="" style="endArrow=block;endSize=16;endFill=0;html=1;rounded=0;exitX=0.5;exitY=0;exitDx=0;exitDy=0;entryX=0.69;entryY=1.045;entryDx=0;entryDy=0;entryPerimeter=0;" edge="1" parent="WIyWlLk6GJQsqaUBKTNV-1" source="x9uNJtBtHDF5PVbIG_vH-8" target="x9uNJtBtHDF5PVbIG_vH-3">
          <mxGeometry width="160" relative="1" as="geometry">
            <mxPoint x="215" y="340" as="sourcePoint" />
            <mxPoint x="360" y="210" as="targetPoint" />
          </mxGeometry>
        </mxCell>
        <mxCell id="x9uNJtBtHDF5PVbIG_vH-16" value="Aeronave" style="swimlane;fontStyle=1;align=center;verticalAlign=top;childLayout=stackLayout;horizontal=1;startSize=26;horizontalStack=0;resizeParent=1;resizeParentMax=0;resizeLast=0;collapsible=1;marginBottom=0;whiteSpace=wrap;html=1;" vertex="1" parent="WIyWlLk6GJQsqaUBKTNV-1">
          <mxGeometry x="840" y="60" width="260" height="174" as="geometry" />
        </mxCell>
        <mxCell id="x9uNJtBtHDF5PVbIG_vH-17" value="&lt;div&gt;- marca: string&lt;/div&gt;&lt;div&gt;- modelo: string&lt;/div&gt;&lt;div&gt;- capacidadPasajeros: int&lt;/div&gt;&lt;div&gt;- velocidadMaxima: int&lt;/div&gt;&lt;div&gt;- autonomia: int&lt;/div&gt;&lt;div&gt;- aÃ±oFabricacion: string&lt;/div&gt;&lt;div&gt;-estado: int&lt;br&gt;&lt;/div&gt;" style="text;strokeColor=none;fillColor=none;align=left;verticalAlign=top;spacingLeft=4;spacingRight=4;overflow=hidden;rotatable=0;points=[[0,0.5],[1,0.5]];portConstraint=eastwest;whiteSpace=wrap;html=1;" vertex="1" parent="x9uNJtBtHDF5PVbIG_vH-16">
          <mxGeometry y="26" width="260" height="114" as="geometry" />
        </mxCell>
        <mxCell id="x9uNJtBtHDF5PVbIG_vH-18" value="" style="line;strokeWidth=1;fillColor=none;align=left;verticalAlign=middle;spacingTop=-1;spacingLeft=3;spacingRight=3;rotatable=0;labelPosition=right;points=[];portConstraint=eastwest;strokeColor=inherit;" vertex="1" parent="x9uNJtBtHDF5PVbIG_vH-16">
          <mxGeometry y="140" width="260" height="8" as="geometry" />
        </mxCell>
        <mxCell id="x9uNJtBtHDF5PVbIG_vH-19" value="+ Aeronave( string, string, int,int,int,string,int)" style="text;strokeColor=none;fillColor=none;align=left;verticalAlign=top;spacingLeft=4;spacingRight=4;overflow=hidden;rotatable=0;points=[[0,0.5],[1,0.5]];portConstraint=eastwest;whiteSpace=wrap;html=1;" vertex="1" parent="x9uNJtBtHDF5PVbIG_vH-16">
          <mxGeometry y="148" width="260" height="26" as="geometry" />
        </mxCell>
        <mxCell id="x9uNJtBtHDF5PVbIG_vH-20" value="Avion" style="swimlane;fontStyle=1;align=center;verticalAlign=top;childLayout=stackLayout;horizontal=1;startSize=26;horizontalStack=0;resizeParent=1;resizeParentMax=0;resizeLast=0;collapsible=1;marginBottom=0;whiteSpace=wrap;html=1;" vertex="1" parent="WIyWlLk6GJQsqaUBKTNV-1">
          <mxGeometry x="667" y="330" width="170" height="124" as="geometry" />
        </mxCell>
        <mxCell id="x9uNJtBtHDF5PVbIG_vH-21" value="&lt;div&gt;- alturaMaxima: int&lt;/div&gt;&lt;div&gt;- cantidadMotores: int&lt;/div&gt;&lt;div&gt;- categoria: string&lt;/div&gt;&lt;div&gt;&lt;br&gt;&lt;/div&gt;" style="text;strokeColor=none;fillColor=none;align=left;verticalAlign=top;spacingLeft=4;spacingRight=4;overflow=hidden;rotatable=0;points=[[0,0.5],[1,0.5]];portConstraint=eastwest;whiteSpace=wrap;html=1;" vertex="1" parent="x9uNJtBtHDF5PVbIG_vH-20">
          <mxGeometry y="26" width="170" height="64" as="geometry" />
        </mxCell>
        <mxCell id="x9uNJtBtHDF5PVbIG_vH-22" value="" style="line;strokeWidth=1;fillColor=none;align=left;verticalAlign=middle;spacingTop=-1;spacingLeft=3;spacingRight=3;rotatable=0;labelPosition=right;points=[];portConstraint=eastwest;strokeColor=inherit;" vertex="1" parent="x9uNJtBtHDF5PVbIG_vH-20">
          <mxGeometry y="90" width="170" height="8" as="geometry" />
        </mxCell>
        <mxCell id="x9uNJtBtHDF5PVbIG_vH-23" value="+ Avion( int,int,string)" style="text;strokeColor=none;fillColor=none;align=left;verticalAlign=top;spacingLeft=4;spacingRight=4;overflow=hidden;rotatable=0;points=[[0,0.5],[1,0.5]];portConstraint=eastwest;whiteSpace=wrap;html=1;" vertex="1" parent="x9uNJtBtHDF5PVbIG_vH-20">
          <mxGeometry y="98" width="170" height="26" as="geometry" />
        </mxCell>
        <mxCell id="x9uNJtBtHDF5PVbIG_vH-24" value="Helicoptero" style="swimlane;fontStyle=1;align=center;verticalAlign=top;childLayout=stackLayout;horizontal=1;startSize=26;horizontalStack=0;resizeParent=1;resizeParentMax=0;resizeLast=0;collapsible=1;marginBottom=0;whiteSpace=wrap;html=1;" vertex="1" parent="WIyWlLk6GJQsqaUBKTNV-1">
          <mxGeometry x="960" y="330" width="180" height="114" as="geometry" />
        </mxCell>
        <mxCell id="x9uNJtBtHDF5PVbIG_vH-25" value="&lt;div&gt;- cantidadRotores: int&lt;/div&gt;&lt;div&gt;- capacidadElevacion: int&lt;/div&gt;&lt;div&gt;- usoEspecifico: string&lt;br&gt;&lt;/div&gt;" style="text;strokeColor=none;fillColor=none;align=left;verticalAlign=top;spacingLeft=4;spacingRight=4;overflow=hidden;rotatable=0;points=[[0,0.5],[1,0.5]];portConstraint=eastwest;whiteSpace=wrap;html=1;" vertex="1" parent="x9uNJtBtHDF5PVbIG_vH-24">
          <mxGeometry y="26" width="180" height="54" as="geometry" />
        </mxCell>
        <mxCell id="x9uNJtBtHDF5PVbIG_vH-26" value="" style="line;strokeWidth=1;fillColor=none;align=left;verticalAlign=middle;spacingTop=-1;spacingLeft=3;spacingRight=3;rotatable=0;labelPosition=right;points=[];portConstraint=eastwest;strokeColor=inherit;" vertex="1" parent="x9uNJtBtHDF5PVbIG_vH-24">
          <mxGeometry y="80" width="180" height="8" as="geometry" />
        </mxCell>
        <mxCell id="x9uNJtBtHDF5PVbIG_vH-27" value="+ Helicoptero( int,int,string )" style="text;strokeColor=none;fillColor=none;align=left;verticalAlign=top;spacingLeft=4;spacingRight=4;overflow=hidden;rotatable=0;points=[[0,0.5],[1,0.5]];portConstraint=eastwest;whiteSpace=wrap;html=1;" vertex="1" parent="x9uNJtBtHDF5PVbIG_vH-24">
          <mxGeometry y="88" width="180" height="26" as="geometry" />
        </mxCell>
        <mxCell id="x9uNJtBtHDF5PVbIG_vH-37" style="edgeStyle=orthogonalEdgeStyle;rounded=0;orthogonalLoop=1;jettySize=auto;html=1;exitX=0.5;exitY=0;exitDx=0;exitDy=0;entryX=1;entryY=0;entryDx=0;entryDy=0;" edge="1" parent="WIyWlLk6GJQsqaUBKTNV-1" source="x9uNJtBtHDF5PVbIG_vH-30" target="x9uNJtBtHDF5PVbIG_vH-0">
          <mxGeometry relative="1" as="geometry">
            <mxPoint x="1210" y="10" as="targetPoint" />
            <Array as="points">
              <mxPoint x="1330" y="10" />
              <mxPoint x="460" y="10" />
            </Array>
          </mxGeometry>
        </mxCell>
        <mxCell id="x9uNJtBtHDF5PVbIG_vH-30" value="JetPrivado" style="swimlane;fontStyle=1;align=center;verticalAlign=top;childLayout=stackLayout;horizontal=1;startSize=26;horizontalStack=0;resizeParent=1;resizeParentMax=0;resizeLast=0;collapsible=1;marginBottom=0;whiteSpace=wrap;html=1;" vertex="1" parent="WIyWlLk6GJQsqaUBKTNV-1">
          <mxGeometry x="1190" y="342" width="280" height="180" as="geometry" />
        </mxCell>
        <mxCell id="x9uNJtBtHDF5PVbIG_vH-31" value="&lt;div&gt;- propietario: *Persona&lt;/div&gt;&lt;div&gt;- servicios: list&amp;lt;string&amp;gt;&lt;/div&gt;&lt;div&gt;- destinosFrecuentes: list&amp;lt;string&amp;gt;&lt;br&gt;&lt;/div&gt;" style="text;strokeColor=none;fillColor=none;align=left;verticalAlign=top;spacingLeft=4;spacingRight=4;overflow=hidden;rotatable=0;points=[[0,0.5],[1,0.5]];portConstraint=eastwest;whiteSpace=wrap;html=1;" vertex="1" parent="x9uNJtBtHDF5PVbIG_vH-30">
          <mxGeometry y="26" width="280" height="84" as="geometry" />
        </mxCell>
        <mxCell id="x9uNJtBtHDF5PVbIG_vH-32" value="" style="line;strokeWidth=1;fillColor=none;align=left;verticalAlign=middle;spacingTop=-1;spacingLeft=3;spacingRight=3;rotatable=0;labelPosition=right;points=[];portConstraint=eastwest;strokeColor=inherit;" vertex="1" parent="x9uNJtBtHDF5PVbIG_vH-30">
          <mxGeometry y="110" width="280" height="8" as="geometry" />
        </mxCell>
        <mxCell id="x9uNJtBtHDF5PVbIG_vH-33" value="+ JetPrivado( *Persona, list&amp;lt;string&amp;gt;,list&amp;lt;string&amp;gt; )" style="text;strokeColor=none;fillColor=none;align=left;verticalAlign=top;spacingLeft=4;spacingRight=4;overflow=hidden;rotatable=0;points=[[0,0.5],[1,0.5]];portConstraint=eastwest;whiteSpace=wrap;html=1;" vertex="1" parent="x9uNJtBtHDF5PVbIG_vH-30">
          <mxGeometry y="118" width="280" height="62" as="geometry" />
        </mxCell>
        <mxCell id="x9uNJtBtHDF5PVbIG_vH-34" value="" style="endArrow=block;endSize=16;endFill=0;html=1;rounded=0;exitX=0.5;exitY=0;exitDx=0;exitDy=0;entryX=0;entryY=0.5;entryDx=0;entryDy=0;" edge="1" parent="WIyWlLk6GJQsqaUBKTNV-1" target="x9uNJtBtHDF5PVbIG_vH-19">
          <mxGeometry width="160" relative="1" as="geometry">
            <mxPoint x="754" y="330" as="sourcePoint" />
            <mxPoint x="700" y="213" as="targetPoint" />
          </mxGeometry>
        </mxCell>
        <mxCell id="x9uNJtBtHDF5PVbIG_vH-35" value="" style="endArrow=block;endSize=16;endFill=0;html=1;rounded=0;exitX=0.5;exitY=0;exitDx=0;exitDy=0;entryX=1.017;entryY=0.202;entryDx=0;entryDy=0;entryPerimeter=0;" edge="1" parent="WIyWlLk6GJQsqaUBKTNV-1" target="x9uNJtBtHDF5PVbIG_vH-19">
          <mxGeometry width="160" relative="1" as="geometry">
            <mxPoint x="1241" y="342" as="sourcePoint" />
            <mxPoint x="1327" y="233" as="targetPoint" />
          </mxGeometry>
        </mxCell>
        <mxCell id="x9uNJtBtHDF5PVbIG_vH-36" value="" style="endArrow=block;endSize=16;endFill=0;html=1;rounded=0;exitX=0.25;exitY=0;exitDx=0;exitDy=0;entryX=0.517;entryY=1.019;entryDx=0;entryDy=0;entryPerimeter=0;" edge="1" parent="WIyWlLk6GJQsqaUBKTNV-1" source="x9uNJtBtHDF5PVbIG_vH-24" target="x9uNJtBtHDF5PVbIG_vH-19">
          <mxGeometry width="160" relative="1" as="geometry">
            <mxPoint x="774" y="350" as="sourcePoint" />
            <mxPoint x="860" y="241" as="targetPoint" />
          </mxGeometry>
        </mxCell>
        <mxCell id="x9uNJtBtHDF5PVbIG_vH-42" style="edgeStyle=orthogonalEdgeStyle;rounded=0;orthogonalLoop=1;jettySize=auto;html=1;exitX=0.75;exitY=0;exitDx=0;exitDy=0;entryX=-0.015;entryY=0.2;entryDx=0;entryDy=0;entryPerimeter=0;" edge="1" parent="WIyWlLk6GJQsqaUBKTNV-1" source="x9uNJtBtHDF5PVbIG_vH-38" target="x9uNJtBtHDF5PVbIG_vH-17">
          <mxGeometry relative="1" as="geometry">
            <mxPoint x="630" y="110" as="targetPoint" />
            <Array as="points">
              <mxPoint x="583" y="109" />
            </Array>
          </mxGeometry>
        </mxCell>
        <mxCell id="x9uNJtBtHDF5PVbIG_vH-38" value="Vuelo" style="swimlane;fontStyle=1;align=center;verticalAlign=top;childLayout=stackLayout;horizontal=1;startSize=26;horizontalStack=0;resizeParent=1;resizeParentMax=0;resizeLast=0;collapsible=1;marginBottom=0;whiteSpace=wrap;html=1;" vertex="1" parent="WIyWlLk6GJQsqaUBKTNV-1">
          <mxGeometry x="440" y="550" width="190" height="144" as="geometry" />
        </mxCell>
        <mxCell id="x9uNJtBtHDF5PVbIG_vH-39" value="&lt;div&gt;- numeroIdentificacion: string&lt;/div&gt;&lt;div&gt;- fecha: sring&lt;/div&gt;&lt;div&gt;- origen: string&lt;/div&gt;&lt;div&gt;- destino: string&lt;/div&gt;&lt;div&gt;- aeronave: *Aeronave&lt;br&gt;&lt;/div&gt;" style="text;strokeColor=none;fillColor=none;align=left;verticalAlign=top;spacingLeft=4;spacingRight=4;overflow=hidden;rotatable=0;points=[[0,0.5],[1,0.5]];portConstraint=eastwest;whiteSpace=wrap;html=1;" vertex="1" parent="x9uNJtBtHDF5PVbIG_vH-38">
          <mxGeometry y="26" width="190" height="84" as="geometry" />
        </mxCell>
        <mxCell id="x9uNJtBtHDF5PVbIG_vH-40" value="" style="line;strokeWidth=1;fillColor=none;align=left;verticalAlign=middle;spacingTop=-1;spacingLeft=3;spacingRight=3;rotatable=0;labelPosition=right;points=[];portConstraint=eastwest;strokeColor=inherit;" vertex="1" parent="x9uNJtBtHDF5PVbIG_vH-38">
          <mxGeometry y="110" width="190" height="8" as="geometry" />
        </mxCell>
        <mxCell id="x9uNJtBtHDF5PVbIG_vH-41" value="+ method(type): type" style="text;strokeColor=none;fillColor=none;align=left;verticalAlign=top;spacingLeft=4;spacingRight=4;overflow=hidden;rotatable=0;points=[[0,0.5],[1,0.5]];portConstraint=eastwest;whiteSpace=wrap;html=1;" vertex="1" parent="x9uNJtBtHDF5PVbIG_vH-38">
          <mxGeometry y="118" width="190" height="26" as="geometry" />
        </mxCell>
        <mxCell id="x9uNJtBtHDF5PVbIG_vH-43" value="TorreControl" style="swimlane;fontStyle=1;align=center;verticalAlign=top;childLayout=stackLayout;horizontal=1;startSize=26;horizontalStack=0;resizeParent=1;resizeParentMax=0;resizeLast=0;collapsible=1;marginBottom=0;whiteSpace=wrap;html=1;" vertex="1" parent="WIyWlLk6GJQsqaUBKTNV-1">
          <mxGeometry x="800" y="680" width="160" height="86" as="geometry" />
        </mxCell>
        <mxCell id="x9uNJtBtHDF5PVbIG_vH-44" value="+ field: type" style="text;strokeColor=none;fillColor=none;align=left;verticalAlign=top;spacingLeft=4;spacingRight=4;overflow=hidden;rotatable=0;points=[[0,0.5],[1,0.5]];portConstraint=eastwest;whiteSpace=wrap;html=1;" vertex="1" parent="x9uNJtBtHDF5PVbIG_vH-43">
          <mxGeometry y="26" width="160" height="26" as="geometry" />
        </mxCell>
        <mxCell id="x9uNJtBtHDF5PVbIG_vH-45" value="" style="line;strokeWidth=1;fillColor=none;align=left;verticalAlign=middle;spacingTop=-1;spacingLeft=3;spacingRight=3;rotatable=0;labelPosition=right;points=[];portConstraint=eastwest;strokeColor=inherit;" vertex="1" parent="x9uNJtBtHDF5PVbIG_vH-43">
          <mxGeometry y="52" width="160" height="8" as="geometry" />
        </mxCell>
        <mxCell id="x9uNJtBtHDF5PVbIG_vH-46" value="+ method(type): type" style="text;strokeColor=none;fillColor=none;align=left;verticalAlign=top;spacingLeft=4;spacingRight=4;overflow=hidden;rotatable=0;points=[[0,0.5],[1,0.5]];portConstraint=eastwest;whiteSpace=wrap;html=1;" vertex="1" parent="x9uNJtBtHDF5PVbIG_vH-43">
          <mxGeometry y="60" width="160" height="26" as="geometry" />
        </mxCell>
        <mxCell id="x9uNJtBtHDF5PVbIG_vH-47" value="PuertaEmbarque" style="swimlane;fontStyle=1;align=center;verticalAlign=top;childLayout=stackLayout;horizontal=1;startSize=26;horizontalStack=0;resizeParent=1;resizeParentMax=0;resizeLast=0;collapsible=1;marginBottom=0;whiteSpace=wrap;html=1;" vertex="1" parent="WIyWlLk6GJQsqaUBKTNV-1">
          <mxGeometry x="80" y="560" width="190" height="154" as="geometry" />
        </mxCell>
        <mxCell id="x9uNJtBtHDF5PVbIG_vH-48" value="&lt;div&gt;- identificacion: string&lt;/div&gt;&lt;div&gt;- ubicacion: string&lt;br&gt;&lt;/div&gt;&lt;div&gt;- disponibilidad: bool&lt;/div&gt;&lt;div&gt;+ horaEmbarque: string&lt;/div&gt;&lt;div&gt;- historial: list&amp;lt;*vuelo&amp;gt;&lt;br&gt;&lt;/div&gt;" style="text;strokeColor=none;fillColor=none;align=left;verticalAlign=top;spacingLeft=4;spacingRight=4;overflow=hidden;rotatable=0;points=[[0,0.5],[1,0.5]];portConstraint=eastwest;whiteSpace=wrap;html=1;" vertex="1" parent="x9uNJtBtHDF5PVbIG_vH-47">
          <mxGeometry y="26" width="190" height="94" as="geometry" />
        </mxCell>
        <mxCell id="x9uNJtBtHDF5PVbIG_vH-49" value="" style="line;strokeWidth=1;fillColor=none;align=left;verticalAlign=middle;spacingTop=-1;spacingLeft=3;spacingRight=3;rotatable=0;labelPosition=right;points=[];portConstraint=eastwest;strokeColor=inherit;" vertex="1" parent="x9uNJtBtHDF5PVbIG_vH-47">
          <mxGeometry y="120" width="190" height="8" as="geometry" />
        </mxCell>
        <mxCell id="x9uNJtBtHDF5PVbIG_vH-50" value="+ PueraEmbarque( string,string)" style="text;strokeColor=none;fillColor=none;align=left;verticalAlign=top;spacingLeft=4;spacingRight=4;overflow=hidden;rotatable=0;points=[[0,0.5],[1,0.5]];portConstraint=eastwest;whiteSpace=wrap;html=1;" vertex="1" parent="x9uNJtBtHDF5PVbIG_vH-47">
          <mxGeometry y="128" width="190" height="26" as="geometry" />
        </mxCell>
        <mxCell id="x9uNJtBtHDF5PVbIG_vH-51" value="1" style="endArrow=open;html=1;endSize=12;startArrow=diamondThin;startSize=14;startFill=0;edgeStyle=orthogonalEdgeStyle;align=left;verticalAlign=bottom;rounded=0;exitX=1.032;exitY=0.165;exitDx=0;exitDy=0;exitPerimeter=0;entryX=-0.011;entryY=0.174;entryDx=0;entryDy=0;entryPerimeter=0;" edge="1" parent="WIyWlLk6GJQsqaUBKTNV-1" source="x9uNJtBtHDF5PVbIG_vH-48" target="x9uNJtBtHDF5PVbIG_vH-39">
          <mxGeometry x="-1" y="3" relative="1" as="geometry">
            <mxPoint x="260" y="580" as="sourcePoint" />
            <mxPoint x="420" y="580" as="targetPoint" />
          </mxGeometry>
        </mxCell>
        <mxCell id="x9uNJtBtHDF5PVbIG_vH-52" value="" style="endArrow=open;html=1;endSize=12;startArrow=diamondThin;startSize=14;startFill=0;edgeStyle=orthogonalEdgeStyle;align=left;verticalAlign=bottom;rounded=0;exitX=0;exitY=0;exitDx=0;exitDy=0;entryX=1;entryY=0.25;entryDx=0;entryDy=0;" edge="1" parent="WIyWlLk6GJQsqaUBKTNV-1" source="x9uNJtBtHDF5PVbIG_vH-43" target="x9uNJtBtHDF5PVbIG_vH-38">
          <mxGeometry x="-0.7726" y="-10" relative="1" as="geometry">
            <mxPoint x="560" y="580" as="sourcePoint" />
            <mxPoint x="720" y="580" as="targetPoint" />
            <mxPoint y="1" as="offset" />
          </mxGeometry>
        </mxCell>
      </root>
    </mxGraphModel>
  </diagram>
</mxfile>
